<svg xmlns="http://www.w3.org/2000/svg" width="33.60784312992176" height="23.41176469488265"><rect id="backgroundrect" width="100%" height="100%" x="0" y="0" fill="none" stroke="none" class="selected" style=""/>

 <g style="">
  <title>background</title>
  <rect fill="none" id="canvas_background" height="34" width="46" y="-1" x="-1"/>
 </g>
 <g style="" class="currentLayer">
  <title>Layer 1</title>
  <g id="svg_1" class="">
   <path id="svg_2" fill="#1E88E5" d="m31.720638902279305,23.301986808063333 l-29.576321103890198,0 c-1.166152089239099,0 -2.1125943645635856,-0.9464422753244894 -2.1125943645635856,-2.1125943645635856 l0,-19.013349281072266 c0,-1.166152089239099 0.9464422753244894,-2.1125943645635856 2.1125943645635856,-2.1125943645635856 l29.576321103890198,0 c1.166152089239099,0 2.1125943645635856,0.9464422753244894 2.1125943645635856,2.1125943645635856 l0,19.013349281072266 c0,1.166152089239099 -0.9464422753244894,2.1125943645635856 -2.1125943645635856,2.1125943645635856 z" stroke-width="0"/>
   <path id="svg_3" fill="#2196F3" d="m31.720638902279305,23.301986808063333 l-29.576321103890198,0 c-1.1851654385201718,0 -2.1125943645635856,-0.9274289260434146 -2.1125943645635856,-2.1125943645635856 c0,-0.33590250396561433 0.16055717170683345,-0.6527916586501559 0.4309692503709731,-0.851375528919125 l15.844457734226893,-10.562971822817927 c0.1859083040815971,-0.1373186336966334 0.4056181179962098,-0.20492165336266793 0.6253279319108218,-0.20492165336266793 s0.4394196278292288,0.0676030196660352 0.6253279319108218,0.20492165336266793 l15.844457734226893,10.562971822817927 c0.2704120786641393,0.1985838702689772 0.4309692503709731,0.5154730249535151 0.4309692503709731,0.851375528919125 c0,1.1851654385201718 -0.9274289260434146,2.1125943645635856 -2.1125943645635856,2.1125943645635856 z" stroke-width="0"/>
   <path id="svg_4" fill="#64B5F6" class="active-path" d="m31.720638902279305,0.06344879786389357 l-29.576321103890198,0 c-1.1851654385201718,0 -2.1125943645635856,0.9274289260434146 -2.1125943645635856,2.1125943645635856 c0,0.33590250396561433 0.16055717170683345,0.6527916586501559 0.4309692503709731,0.851375528919125 l15.852908111685148,11.380545841904034 c0.3675914194340643,0.2640742955704502 0.8640510951065095,0.2640742955704502 1.2316425145405707,0 l15.852908111685148,-11.380545841904034 c0.27252467302870487,-0.1985838702689772 0.4330818447355351,-0.5154730249535151 0.4330818447355351,-0.851375528919125 c0,-1.1851654385201718 -0.9274289260434146,-2.1125943645635856 -2.1125943645635856,-2.1125943645635856 z" stroke-width="0"/>
  </g>
 </g>
</svg>