<?xml version="1.0"?><!DOCTYPE svg PUBLIC "-//W3C//DTD SVG 1.1//EN" "http://www.w3.org/Graphics/SVG/1.1/DTD/svg11.dtd"><svg width="346" height="278" viewBox="0 0 346 278" xmlns="http://www.w3.org/2000/svg" xmlns:xlink="http://www.w3.org/1999/xlink"><svg width="42" height="42" viewBox="-1 -1 446.82 446.82" id="svg--arrow-pointing-to-left" x="296" y="102" xmlns="http://www.w3.org/2000/svg"><path d="M423.265 178.298c-6.19-7.139-14.229-10.707-24.126-10.707H198.148L281.8 83.937c7.234-7.229 10.848-15.891 10.848-25.981 0-10.085-3.613-18.747-10.848-25.979l-21.413-21.129C253.156 3.619 244.59 0 234.693 0c-10.089 0-18.752 3.615-25.981 10.848L22.848 196.428c-7.043 7.423-10.564 16.084-10.564 25.981 0 10.089 3.521 18.654 10.564 25.693l185.864 186.152c7.422 7.043 16.083 10.567 25.981 10.567 10.085 0 18.65-3.524 25.693-10.567l21.413-21.693c7.234-6.851 10.848-15.42 10.848-25.693 0-10.284-3.613-18.853-10.848-25.7l-83.652-83.939h200.991c9.896 0 17.936-3.569 24.126-10.707 6.184-7.139 9.274-15.749 9.274-25.838v-36.545c.004-10.089-3.09-18.702-9.273-25.841z" data-original="#000000" class="aactive-path" data-old_color="#ffffff" fill="#fff"/></svg><svg width="52" height="52" viewBox="-1 -1 440.53 440.53" id="svg--arrow-up-on-a-black-circle-background" x="244" y="102" xmlns="http://www.w3.org/2000/svg"><path d="M409.133 109.203c-19.608-33.592-46.205-60.189-79.798-79.796C295.736 9.801 259.058 0 219.273 0c-39.781 0-76.47 9.801-110.063 29.407-33.595 19.604-60.192 46.201-79.8 79.796C9.801 142.8 0 179.489 0 219.267c0 39.78 9.804 76.463 29.407 110.062 19.607 33.592 46.204 60.189 79.799 79.798 33.597 19.605 70.283 29.407 110.063 29.407s76.47-9.802 110.065-29.407c33.593-19.602 60.189-46.206 79.795-79.798 19.603-33.596 29.403-70.284 29.403-110.062.001-39.782-9.8-76.472-29.399-110.064zm-47.684 122.628l-25.981 25.981c-3.613 3.613-7.901 5.42-12.847 5.42-4.948 0-9.229-1.807-12.847-5.42l-53.954-53.961v143.32c0 4.948-1.813 9.232-5.428 12.847-3.613 3.62-7.898 5.427-12.847 5.427h-36.547c-4.948 0-9.231-1.807-12.847-5.427-3.617-3.614-5.426-7.898-5.426-12.847v-143.32l-53.959 53.961c-3.431 3.425-7.708 5.133-12.85 5.133-5.14 0-9.423-1.708-12.85-5.133l-25.981-25.981c-3.422-3.429-5.137-7.714-5.137-12.852 0-5.137 1.709-9.419 5.137-12.847l103.356-103.353 25.981-25.981c3.427-3.425 7.71-5.14 12.847-5.14 5.142 0 9.423 1.715 12.849 5.14l25.98 25.981 103.35 103.353c3.432 3.427 5.14 7.71 5.14 12.847.001 5.138-1.707 9.423-5.139 12.852z"/></svg><svg width="122" height="122" viewBox="-1 -1 60 60" id="svg--calendar" xmlns="http://www.w3.org/2000/svg"><path d="M42.899 4.5A5.009 5.009 0 0 0 38 .5a1 1 0 1 0 0 2c1.654 0 3 1.346 3 3s-1.346 3-3 3a1 1 0 1 0 0 2 5.01 5.01 0 0 0 4.899-4H56v7H2v-7h17a1 1 0 1 0 0-2h-1.816A2.995 2.995 0 0 1 20 2.5c1.654 0 3 1.346 3 3s-1.346 3-3 3a1 1 0 1 0 0 2c2.757 0 5-2.243 5-5s-2.243-5-5-5a5.01 5.01 0 0 0-4.899 4H0v53h58v-53H42.899zM30 15.5h12v12H30v-12zm12 26H30v-12h12v12zm-26-12h12v12H16v-12zm0-14h12v12H16v-12zm-14 1v-1h12v12H2v-11zm0 13h12v12H2v-12zm0 26v-12h12v12H2zm14 0v-12h12v12H16zm14 0v-12h12v12H30zm26 0H44v-12h12v12zm0-14H44v-12h12v12zm-12-14v-12h12v12H44z"/><path d="M26 2.5c1.654 0 3 1.346 3 3s-1.346 3-3 3a1 1 0 1 0 0 2c2.757 0 5-2.243 5-5s-2.243-5-5-5a1 1 0 1 0 0 2z"/><path d="M32 2.5c1.654 0 3 1.346 3 3s-1.346 3-3 3a1 1 0 1 0 0 2c2.757 0 5-2.243 5-5s-2.243-5-5-5a1 1 0 1 0 0 2zM31.293 40.207a.997.997 0 0 0 1.414 0L36 36.914l3.293 3.293a.997.997 0 0 0 1.414 0 .999.999 0 0 0 0-1.414L37.414 35.5l3.293-3.293a.999.999 0 1 0-1.414-1.414L36 34.086l-3.293-3.293a.999.999 0 1 0-1.414 1.414l3.293 3.293-3.293 3.293a.999.999 0 0 0 0 1.414z"/></svg><svg width="35.61" height="25.41" viewBox="-1 -1 35.61 25.41" id="svg--envelope" x="244" y="196" xmlns="http://www.w3.org/2000/svg"><rect width="100%" height="100%" fill="none" class="dselected"/><g><title>background</title><path fill="none" d="M-1-1h46v34H-1z"/></g><g class="dcurrentLayer"><title>Layer 1</title><g><path fill="#1E88E5" d="M31.72 23.302H2.145a2.113 2.113 0 0 1-2.112-2.113V2.176C.032 1.01.978.063 2.144.063h29.577c1.166 0 2.112.947 2.112 2.113v19.013a2.113 2.113 0 0 1-2.112 2.113z"/><path fill="#2196F3" d="M31.72 23.302H2.145a2.09 2.09 0 0 1-2.112-2.113c0-.336.16-.652.43-.851L16.308 9.775a1.051 1.051 0 0 1 1.25 0l15.845 10.563c.27.199.431.515.431.851a2.09 2.09 0 0 1-2.112 2.113z"/><path fill="#64B5F6" class="dactive-path" d="M31.72.063H2.145A2.09 2.09 0 0 0 .032 2.176c0 .336.16.653.43.851l15.854 11.381c.367.264.864.264 1.231 0L33.4 3.028c.273-.2.433-.516.433-.852A2.09 2.09 0 0 0 31.721.063z"/></g></g></svg><svg width="102" height="102" viewBox="-1 -1 440.53 440.53" id="svg--frown" x="122" y="122" xmlns="http://www.w3.org/2000/svg"><path d="M409.133 109.203c-19.608-33.592-46.205-60.189-79.798-79.796C295.736 9.801 259.058 0 219.273 0c-39.781 0-76.47 9.801-110.063 29.407-33.595 19.604-60.192 46.201-79.8 79.796C9.801 142.8 0 179.489 0 219.267c0 39.78 9.804 76.463 29.407 110.062 19.607 33.592 46.204 60.189 79.799 79.798 33.597 19.605 70.283 29.407 110.063 29.407s76.47-9.802 110.065-29.407c33.593-19.602 60.189-46.206 79.795-79.798 19.603-33.596 29.403-70.284 29.403-110.062.001-39.782-9.8-76.472-29.399-110.064zm-21.699 181.01c-9.709 22.556-22.696 41.97-38.969 58.245-16.271 16.269-35.689 29.26-58.245 38.965-22.555 9.712-46.202 14.564-70.946 14.564s-48.391-4.853-70.948-14.564c-22.554-9.705-41.971-22.696-58.245-38.965-16.269-16.275-29.259-35.687-38.97-58.245-9.707-22.552-14.562-46.206-14.562-70.946 0-24.744 4.854-48.391 14.562-70.948 9.707-22.554 22.697-41.968 38.97-58.245 16.274-16.269 35.691-29.26 58.245-38.97 22.554-9.704 46.205-14.558 70.948-14.558 24.74 0 48.395 4.851 70.946 14.558 22.556 9.707 41.97 22.698 58.245 38.97 16.272 16.274 29.26 35.688 38.969 58.245 9.709 22.554 14.564 46.201 14.564 70.948.004 24.744-4.855 48.397-14.564 70.946z"/><path d="M284.368 258.668c-19.219-14.086-40.926-21.129-65.095-21.129-24.172 0-45.871 7.039-65.096 21.129-19.224 14.085-32.358 32.641-39.397 55.671-1.521 4.757-1.143 9.381 1.141 13.847 2.286 4.469 5.898 7.467 10.85 8.993 4.758 1.526 9.373 1.143 13.846-1.144 4.471-2.285 7.467-5.899 8.991-10.848 4.759-15.235 13.562-27.556 26.409-36.979 12.847-9.418 27.263-14.127 43.252-14.127 15.987 0 30.412 4.712 43.251 14.127 12.854 9.424 21.655 21.744 26.412 36.979 1.52 4.948 4.564 8.562 9.134 10.848 4.568 2.286 9.236 2.67 13.989 1.144 4.761-1.526 8.278-4.524 10.564-8.993 2.286-4.466 2.669-9.09 1.14-13.847-7.03-23.027-20.168-41.589-39.391-55.671zM146.181 182.725c10.085 0 18.699-3.576 25.837-10.709 7.139-7.135 10.708-15.749 10.708-25.837 0-10.089-3.569-18.699-10.708-25.837s-15.752-10.709-25.837-10.709c-10.088 0-18.702 3.571-25.84 10.709-7.135 7.139-10.707 15.749-10.707 25.837s3.568 18.702 10.707 25.837c7.141 7.136 15.752 10.709 25.84 10.709zM292.359 109.631c-10.089 0-18.706 3.571-25.845 10.709-7.132 7.139-10.708 15.749-10.708 25.837s3.576 18.702 10.708 25.837c7.139 7.137 15.756 10.709 25.845 10.709 10.081 0 18.698-3.576 25.837-10.709 7.139-7.135 10.708-15.749 10.708-25.837 0-10.089-3.569-18.699-10.708-25.837s-15.756-10.709-25.837-10.709z"/></svg><svg width="32" height="32" viewBox="-1 -1 462.3 462.3" id="svg--home-nav" x="34" y="244" xmlns="http://www.w3.org/2000/svg"><path d="M230.149 120.939L65.986 256.274c0 .191-.048.472-.144.855-.094.38-.144.656-.144.852v137.041c0 4.948 1.809 9.236 5.426 12.847 3.616 3.613 7.898 5.431 12.847 5.431h109.63V303.664h73.097v109.64h109.629c4.948 0 9.236-1.814 12.847-5.435 3.617-3.607 5.432-7.898 5.432-12.847V257.981c0-.76-.104-1.334-.288-1.707L230.149 120.939z" data-original="#000000" class="factive-path" data-old_color="#ffffff" fill="#fff"/><path d="M457.122 225.438L394.6 173.476V56.989c0-2.663-.856-4.853-2.574-6.567-1.704-1.712-3.894-2.568-6.563-2.568h-54.816c-2.666 0-4.855.856-6.57 2.568-1.711 1.714-2.566 3.905-2.566 6.567v55.673l-69.662-58.245c-6.084-4.949-13.318-7.423-21.694-7.423-8.375 0-15.608 2.474-21.698 7.423L3.172 225.438c-1.903 1.52-2.946 3.566-3.14 6.136-.193 2.568.472 4.811 1.997 6.713l17.701 21.128c1.525 1.712 3.521 2.759 5.996 3.142 2.285.192 4.57-.476 6.855-1.998L230.149 95.817l197.57 164.741c1.526 1.328 3.521 1.991 5.996 1.991h.858c2.471-.376 4.463-1.43 5.996-3.138l17.703-21.125c1.522-1.906 2.189-4.145 1.991-6.716-.195-2.563-1.242-4.609-3.141-6.132z" data-original="#000000" class="factive-path" data-old_color="#ffffff" fill="#fff"/></svg><svg width="122" height="122" viewBox="-1 -1 62 62" id="svg--house" x="122" xmlns="http://www.w3.org/2000/svg"><path d="M14 36.182h14v-10H14v10zm2-2v-3h10v3H16zm10-6v1H16v-1h10zM14 40.182v12h14v-12H14zm6 2v3h-4v-3h4zm-4 5h4v3h-4v-3zm6 3v-3h4v3h-4zm4-5h-4v-3h4v3zM32 36.182h14v-10H32v10zm2-2v-1h10v1H34zm10-6v3H34v-3h10z"/><path d="M59 48.182a1 1 0 0 0-1 1v1h-1v-1a1 1 0 1 0-2 0v1h-1V29.978a3.975 3.975 0 0 0 1.626.363 4.01 4.01 0 0 0 3.984-4.322 4.017 4.017 0 0 0-1.522-2.833L32.722 3.345 30 .818 27.343 3.29 1.913 23.186a4.01 4.01 0 0 0-1.522 2.833 4.01 4.01 0 0 0 1.057 3.038 3.968 3.968 0 0 0 4.553.922v20.204H5v-1a1 1 0 1 0-2 0v1H2v-1a1 1 0 1 0-2 0v9a1 1 0 1 0 2 0v-1h1v1a1 1 0 1 0 2 0v-1h1v2h48v-2h1v1a1 1 0 1 0 2 0v-1h1v1a1 1 0 1 0 2 0v-9a1 1 0 0 0-1-1.001zM2.912 27.695a1.977 1.977 0 0 1-.527-1.518 1.975 1.975 0 0 1 .761-1.416L28.64 4.811l1.361-1.265 1.424 1.319 25.43 19.896c.446.349.716.852.761 1.416a1.979 1.979 0 0 1-.527 1.518 1.99 1.99 0 0 1-2.686.223l-.403-.31-24-18.5-23.61 18.2-.001.001-.791.609a1.99 1.99 0 0 1-2.686-.223zM2 55.182v-3h1v3H2zm3 0v-3h1v3H5zm29 2v-15h10v15H34zm18 0h-6v-17H32v17H8V28.591l22-16.959 22 16.959v28.591zm2-2v-3h1v3h-1zm3 0v-3h1v3h-1z"/></svg><svg viewBox="-1 -1 60 60" width="42" height="42" id="svg--play-button-left" x="244" y="154" xmlns="http://www.w3.org/2000/svg"><g transform="matrix(-1 0 0 1 58 0)"><circle cx="29" cy="29" r="29" data-original="#EBBA16" class="hactive-path" data-old_color="#EBBA16" fill="#fff"/><path data-original="#FFFFFF" data-old_color="#FFFFFF" d="M44 29L22 44V14z"/><path d="M22 45a.999.999 0 0 1-1-1V14a.999.999 0 0 1 1.564-.826l22 15a1.001 1.001 0 0 1-.001 1.652l-22 15A1.002 1.002 0 0 1 22 45zm1-29.107v26.215L42.225 29 23 15.893z" data-original="#FFFFFF" data-old_color="#FFFFFF"/></g></svg><svg viewBox="-1 -1 60 60" width="42" height="42" id="svg--play-button-right" x="286" y="154" xmlns="http://www.w3.org/2000/svg"><circle cx="29" cy="29" r="29" data-original="#EBBA16" class="iactive-path" data-old_color="#000000" fill="#fff"/><path data-original="#FFFFFF" data-old_color="#221F1F" d="M44 29L22 44V14z"/><path d="M22 45a.999.999 0 0 1-1-1V14a.999.999 0 0 1 1.564-.826l22 15a1.001 1.001 0 0 1-.001 1.652l-22 15A1.002 1.002 0 0 1 22 45zm1-29.107v26.215L42.225 29 23 15.893z" data-original="#FFFFFF" data-old_color="#221F1F"/></svg><svg width="102" height="102" viewBox="-1 -1 440.53 440.53" id="svg--smile" x="244" xmlns="http://www.w3.org/2000/svg"><path d="M409.132 109.205c-19.608-33.592-46.205-60.189-79.798-79.796C295.733 9.803 259.054.002 219.273.002c-39.781 0-76.47 9.801-110.063 29.407-33.595 19.604-60.192 46.201-79.8 79.796C9.801 142.802 0 179.491 0 219.269c0 39.78 9.804 76.463 29.407 110.062 19.607 33.592 46.204 60.189 79.799 79.798 33.597 19.603 70.283 29.403 110.063 29.403s76.47-9.801 110.065-29.403c33.593-19.608 60.189-46.206 79.795-79.798 19.603-33.599 29.403-70.284 29.403-110.062.001-39.782-9.8-76.472-29.4-110.064zm-21.699 181.01c-9.709 22.556-22.696 41.973-38.969 58.245-16.271 16.269-35.689 29.26-58.245 38.965-22.555 9.712-46.202 14.564-70.946 14.564s-48.391-4.859-70.948-14.564c-22.554-9.705-41.971-22.696-58.245-38.965-16.269-16.275-29.259-35.687-38.97-58.245-9.707-22.552-14.562-46.206-14.562-70.946 0-24.744 4.854-48.391 14.562-70.948 9.707-22.554 22.697-41.968 38.97-58.245 16.274-16.269 35.691-29.26 58.245-38.97 22.554-9.704 46.205-14.558 70.948-14.558 24.74 0 48.395 4.851 70.946 14.558 22.556 9.707 41.97 22.698 58.245 38.97 16.272 16.274 29.26 35.688 38.969 58.245 9.709 22.554 14.564 46.201 14.564 70.948.004 24.744-4.855 48.397-14.564 70.946z"/><path d="M312.06 247.533c-4.757-1.532-9.418-1.136-13.99 1.144s-7.617 5.899-9.13 10.849c-4.754 15.229-13.562 27.555-26.412 36.973-12.844 9.421-27.265 14.134-43.255 14.134-15.986 0-30.402-4.716-43.252-14.134-12.847-9.421-21.65-21.744-26.409-36.973-1.521-4.949-4.521-8.569-8.992-10.849-4.473-2.279-9.087-2.676-13.846-1.144-4.949 1.52-8.564 4.518-10.85 8.987-2.284 4.469-2.666 9.096-1.141 13.846 7.039 23.038 20.173 41.593 39.397 55.679 19.226 14.086 40.924 21.121 65.096 21.121 24.169 0 45.873-7.035 65.098-21.121 19.212-14.093 32.347-32.641 39.389-55.679 1.533-4.75 1.15-9.377-1.136-13.846-2.293-4.469-5.817-7.459-10.567-8.987zM146.181 182.727c10.085 0 18.699-3.576 25.837-10.709 7.139-7.135 10.708-15.749 10.708-25.837 0-10.089-3.569-18.699-10.708-25.837s-15.752-10.709-25.837-10.709c-10.088 0-18.702 3.571-25.84 10.709-7.135 7.139-10.707 15.749-10.707 25.837s3.568 18.702 10.707 25.837c7.141 7.136 15.751 10.709 25.84 10.709zM292.359 109.633c-10.089 0-18.706 3.571-25.845 10.709-7.132 7.139-10.708 15.749-10.708 25.837s3.576 18.702 10.708 25.837c7.139 7.137 15.756 10.709 25.845 10.709 10.081 0 18.698-3.576 25.837-10.709 7.139-7.135 10.708-15.749 10.708-25.837 0-10.089-3.569-18.699-10.708-25.837s-15.756-10.709-25.837-10.709z"/></svg><svg width="122" height="122" viewBox="-1 -1 62 62" id="svg--stopwatch" y="122" xmlns="http://www.w3.org/2000/svg"><path d="M31.634 37.989a3.558 3.558 0 0 0 2.606-1.459l9.363-12.944a1 1 0 0 0-1.397-1.397L29.26 31.555c-.844.614-1.375 1.563-1.456 2.604s.296 2.06 1.033 2.797a3.554 3.554 0 0 0 2.797 1.033zm-1.836-3.674a1.56 1.56 0 0 1 .637-1.142l7.897-5.713-5.711 7.895a1.565 1.565 0 0 1-2.371.187 1.564 1.564 0 0 1-.452-1.227z"/><path d="M54.034 19.564c-.01-.021-.01-.043-.021-.064-.012-.02-.031-.031-.044-.05a27.185 27.185 0 0 0-3.565-4.809l2.148-2.147 1.414 1.414 4.242-4.243-4.242-4.242-4.243 4.242 1.415 1.415-2.148 2.147a27.154 27.154 0 0 0-4.809-3.566c-.019-.013-.03-.032-.05-.044-.021-.012-.043-.011-.064-.022a26.81 26.81 0 0 0-10.273-3.404V5h1.5c1.379 0 2.5-1.121 2.5-2.5S36.672 0 35.293 0h-9c-1.379 0-2.5 1.121-2.5 2.5s1.121 2.5 2.5 2.5h1.5v1.156c-1.08.115-2.158.291-3.224.535a1 1 0 1 0 .447 1.949 25.43 25.43 0 0 1 2.78-.477l1.073-.083c.328-.025.63-.043.924-.057V10a1 1 0 1 0 2 0V8.03a24.805 24.805 0 0 1 10.456 2.845l-.986 1.707a1 1 0 0 0 1.732 1l.983-1.703a25.194 25.194 0 0 1 7.772 7.772l-1.703.983a1 1 0 0 0 1.002 1.732l1.707-.986a24.82 24.82 0 0 1 2.849 10.619H53.63a1 1 0 1 0 0 2h1.975a24.82 24.82 0 0 1-2.849 10.619l-1.707-.986a1 1 0 0 0-1 1.732l1.703.983a25.194 25.194 0 0 1-7.772 7.772l-.983-1.703a.998.998 0 0 0-1.366-.366.999.999 0 0 0-.366 1.366l.986 1.707a24.805 24.805 0 0 1-10.456 2.845V56a1 1 0 1 0-2 0v1.976a25.235 25.235 0 0 1-4.776-.617.996.996 0 0 0-1.198.751 1 1 0 0 0 .751 1.198c1.996.46 4.035.692 6.058.692.049 0 .096-.003.145-.004.007 0 .012.004.018.004.008 0 .015-.005.023-.005a26.825 26.825 0 0 0 13.219-3.573c.031-.014.064-.021.094-.039.02-.012.031-.031.05-.044a27.197 27.197 0 0 0 9.773-9.761c.019-.027.043-.048.06-.078.012-.021.011-.043.021-.064C56.317 42.476 57.63 37.89 57.63 33s-1.313-9.476-3.596-13.436zm-.069-11.313l1.414 1.414-1.414 1.415-1.415-1.415 1.415-1.414zm-24.172-2.23V3h-3.5c-.275 0-.5-.225-.5-.5s.225-.5.5-.5h9c.275 0 .5.225.5.5s-.225.5-.5.5h-3.5v3.021c-.348-.014-.68-.021-1-.021l-.088.002L30.63 6c-.164 0-.328.011-.492.014-.116.003-.225.002-.345.007zM21.793 14h-5a1 1 0 1 0 0 2h5a1 1 0 1 0 0-2zM21.793 21h-10a1 1 0 1 0 0 2h10a1 1 0 1 0 0-2zM21.793 28h-15a1 1 0 1 0 0 2h15a1 1 0 1 0 0-2zM21.793 35h-19a1 1 0 1 0 0 2h19a1 1 0 1 0 0-2zM21.793 42h-13a1 1 0 1 0 0 2h13a1 1 0 1 0 0-2zM21.793 49h-7a1 1 0 1 0 0 2h7a1 1 0 1 0 0-2z"/></svg><svg width="34" height="34" viewBox="-1 -1 440.54 440.54" id="svg--telephone-symbol-button" y="244" xmlns="http://www.w3.org/2000/svg"><path d="M414.41 24.123C398.333 8.042 378.963 0 356.315 0H82.228C59.58 0 40.21 8.042 24.126 24.123 8.045 40.207.003 59.576.003 82.225v274.084c0 22.647 8.042 42.018 24.123 58.102 16.084 16.084 35.454 24.126 58.102 24.126h274.084c22.648 0 42.018-8.042 58.095-24.126 16.084-16.084 24.126-35.454 24.126-58.102V82.225c-.001-22.649-8.043-42.021-24.123-58.102zm-55.251 308.751c-3.997 8.754-12.99 16.371-26.977 22.846-13.99 6.475-26.413 9.712-37.265 9.712-3.046 0-6.283-.235-9.708-.711-3.426-.479-6.324-.952-8.703-1.428-2.378-.476-5.523-1.331-9.421-2.57-3.905-1.234-6.715-2.189-8.422-2.854-1.718-.664-4.856-1.854-9.421-3.566-4.569-1.718-7.427-2.765-8.562-3.138-31.215-11.427-61.721-32.028-91.507-61.814-29.786-29.793-50.391-60.292-61.812-91.502-.378-1.143-1.425-3.999-3.14-8.565a952.564 952.564 0 0 0-3.571-9.419c-.662-1.713-1.615-4.521-2.853-8.42-1.237-3.903-2.091-7.041-2.568-9.423-.478-2.376-.95-5.277-1.427-8.704-.476-3.427-.713-6.667-.713-9.71 0-10.85 3.237-23.269 9.71-37.259 6.472-13.988 14.084-22.981 22.841-26.979 10.088-4.189 19.7-6.283 28.837-6.283 2.091 0 3.616.192 4.565.572.953.385 2.524 2.094 4.714 5.14 2.19 3.046 4.568 6.899 7.137 11.563 2.57 4.665 5.092 9.186 7.566 13.562a601.267 601.267 0 0 1 7.139 12.991c2.284 4.279 3.711 6.995 4.281 8.133.571.957 1.809 2.762 3.711 5.429 1.902 2.663 3.333 5.039 4.283 7.135.95 2.094 1.427 4.093 1.427 5.996 0 2.859-1.953 6.331-5.854 10.42-3.903 4.093-8.186 7.854-12.85 11.281s-8.945 7.092-12.847 10.994c-3.899 3.899-5.852 7.087-5.852 9.562 0 1.333.333 2.902 1 4.71.666 1.812 1.285 3.287 1.856 4.427.571 1.141 1.477 2.76 2.712 4.856 1.237 2.096 2.048 3.427 2.426 3.999 10.467 18.843 22.508 35.07 36.114 48.681 13.612 13.613 29.836 25.648 48.682 36.117.567.384 1.902 1.191 4.004 2.43 2.091 1.232 3.713 2.136 4.853 2.707 1.143.571 2.614 1.191 4.425 1.852 1.811.664 3.381.999 4.719.999 3.036 0 7.225-3.138 12.56-9.418a976.681 976.681 0 0 1 16.276-18.705c5.516-6.181 9.985-9.274 13.418-9.274 1.902 0 3.897.473 5.999 1.424 2.095.951 4.469 2.382 7.132 4.284 2.669 1.91 4.476 3.142 5.428 3.721l15.125 8.271c10.089 5.332 18.511 10.041 25.27 14.134s10.424 6.899 10.996 8.419c.379.951.564 2.478.564 4.572-.007 9.128-2.102 18.741-6.297 28.803z" data-original="#000000" class="lactive-path" data-old_color="#488da6" fill="#488da6"/></svg></svg>